<?xml version="1.0" encoding="UTF-8"?>
<svg version="1.1" xmlns="http://www.w3.org/2000/svg" width="1517" height="1314">
<path d="M0 0 C0.73935791 0.65911377 0.73935791 0.65911377 1.49365234 1.33154297 C5.04159925 4.50682941 8.53252493 7.73708101 12 11 C12.65871094 11.61617188 13.31742188 12.23234375 13.99609375 12.8671875 C46.45677555 44.20336531 69.19108165 94.18560138 70.14526367 139.36376953 C70.15839726 140.87007895 70.16576182 142.37644745 70.16796875 143.8828125 C70.17129715 144.70014862 70.17462555 145.51748474 70.17805481 146.35958862 C70.18308207 148.0789128 70.18546445 149.7982466 70.18530273 151.51757812 C70.1874771 154.09782724 70.20564476 156.67763938 70.22460938 159.2578125 C70.25767045 169.3527044 69.66299595 179.03333078 68 189 C69.20011719 189.31710937 70.40023437 189.63421875 71.63671875 189.9609375 C97.370128 197.04982252 118.33578405 208.83134578 137 228 C137.50660156 228.46148438 138.01320313 228.92296875 138.53515625 229.3984375 C153.812536 243.66660538 163.670993 265.08586157 169 285 C169.33902344 286.25941406 169.67804687 287.51882813 170.02734375 288.81640625 C177.27231944 321.90290812 171.01410723 357.60253579 153.14404297 386.22460938 C135.67069901 413.34073342 110.23379516 432.44326948 79.375 441.75 C78.39104248 442.04825684 78.39104248 442.04825684 77.38720703 442.35253906 C65.72147422 445.69215224 54.2379744 446.29304991 42.19122314 446.26742554 C40.51092569 446.27116823 38.83062998 446.2757722 37.15033698 446.28115618 C32.56052002 446.29332593 27.97077627 446.29313284 23.38094687 446.29076743 C18.41949591 446.29035771 13.45806794 446.30141341 8.49662781 446.31088257 C-1.21538358 446.32746231 -10.92737067 446.33299082 -20.63939503 446.33410732 C-28.54174791 446.33505959 -36.44409282 446.33917878 -44.34644318 446.34550858 C-66.78702265 446.36311559 -89.22758304 446.37234872 -111.66816947 446.37084763 C-113.48105595 446.37072776 -113.48105595 446.37072776 -115.33056641 446.37060547 C-116.54064638 446.37052371 -117.75072635 446.37044195 -118.99747542 446.37035771 C-138.58380702 446.36954578 -158.17006154 446.38866126 -177.75637087 446.4168822 C-197.90273321 446.44567916 -218.04905806 446.45941864 -238.19544148 446.45769465 C-249.49170389 446.45703292 -260.78788556 446.46242916 -272.08412933 446.48405075 C-281.70731197 446.50235278 -291.33037732 446.50653666 -300.95356992 446.4930319 C-305.85380345 446.48654643 -310.75381259 446.48622276 -315.65402412 446.5037384 C-361.77767574 446.6582744 -402.6244046 438.86320489 -440 410 C-440.84433594 409.360625 -441.68867188 408.72125 -442.55859375 408.0625 C-475.15670247 382.48775794 -496.86688221 346.20900854 -506 306 C-506.16661133 305.30616211 -506.33322266 304.61232422 -506.50488281 303.89746094 C-512.21992803 279.29791849 -510.81616097 250.37684023 -505 226 C-504.82339844 225.23961426 -504.64679688 224.47922852 -504.46484375 223.69580078 C-497.42934982 194.45290054 -481.75103874 167.57843263 -461 146 C-460.50838379 145.47728516 -460.01676758 144.95457031 -459.51025391 144.41601562 C-427.64856414 110.63819522 -383.16619323 91.59248255 -336.86035156 89.92285156 C-333.23637258 89.85061863 -329.62266651 89.90491882 -326 90 C-325.70504639 89.27586914 -325.41009277 88.55173828 -325.10620117 87.80566406 C-313.10094029 58.62559213 -298.65097967 33.98079032 -277 11 C-276.35933594 10.31808594 -275.71867188 9.63617188 -275.05859375 8.93359375 C-206.01310586 -62.34366749 -89.32026672 -66.13251757 0 0 Z M-168 -7 C-168.7204248 -6.83902832 -169.44084961 -6.67805664 -170.18310547 -6.51220703 C-199.10484906 0.11211312 -225.32114005 15.0077702 -246.52880859 35.58007812 C-247.87369879 36.87810026 -249.2423658 38.1513704 -250.61328125 39.421875 C-262.55645118 50.77455328 -271.51496334 64.41189126 -279 79 C-279.47711426 79.91749023 -279.47711426 79.91749023 -279.96386719 80.85351562 C-296.45343389 112.93666421 -301.10979812 150.73218783 -294 186 C-293.67 186.66 -293.34 187.32 -293 188 C-251.09 188 -209.18 188 -166 188 C-166 229.91 -166 271.82 -166 315 C-159.59439298 316.65588255 -159.59439298 316.65588255 -153.23046875 317.6328125 C-152.410625 317.71692383 -151.59078125 317.80103516 -150.74609375 317.88769531 C-149.47958984 318.00516113 -149.47958984 318.00516113 -148.1875 318.125 C-147.29804687 318.2084668 -146.40859375 318.29193359 -145.4921875 318.37792969 C-102.9978084 322.18873601 -61.77603987 307.80952129 -28.4375 281.8125 C-15.68970997 270.9503615 -4.17770283 259.03053958 5 245 C5.39622559 244.40010254 5.79245117 243.80020508 6.20068359 243.18212891 C29.113672 208.04384903 38.1787097 163.61626607 29.5390625 122.39794922 C19.5524273 77.97370514 -5.62615865 39.47627734 -44.3125 14.875 C-59.31888595 5.91811982 -75.09704378 -1.43137391 -92.0625 -5.75 C-92.84077148 -5.94875732 -93.61904297 -6.14751465 -94.42089844 -6.35229492 C-106.93486873 -9.36707112 -119.36065199 -10.38010038 -132.1875 -10.3125 C-133.27008591 -10.30976578 -133.27008591 -10.30976578 -134.37454224 -10.30697632 C-145.80996911 -10.25849101 -156.83906164 -9.62166198 -168 -7 Z M-357.25 130.625 C-358.59324341 130.89231934 -358.59324341 130.89231934 -359.96362305 131.16503906 C-395.30174026 138.57823536 -427.87228961 160.49026141 -447.8125 190.609375 C-448.54419715 191.73794675 -449.27340434 192.86813709 -450 194 C-450.680625 195.05703125 -451.36125 196.1140625 -452.0625 197.203125 C-470.42138785 227.4666042 -476.16151533 265.59620078 -468 300 C-467.77449463 301.00571045 -467.77449463 301.00571045 -467.54443359 302.03173828 C-463.19711856 320.84301734 -454.1980539 339.06287556 -442 354 C-441.5241748 354.59103516 -441.04834961 355.18207031 -440.55810547 355.79101562 C-417.29653085 384.48357332 -384.27039909 403.42908376 -347.39257812 407.80151367 C-331.65047358 409.10746581 -315.34200106 408.98126537 -300 405 C-299.21222168 404.80132324 -298.42444336 404.60264648 -297.61279297 404.39794922 C-286.31890872 401.47994351 -275.95636217 397.60767961 -265.74609375 391.96289062 C-264.1462499 391.08065011 -262.52704154 390.23376404 -260.90625 389.390625 C-244.51785553 380.49155059 -228.57550511 366.36106887 -218 351 C-218 350.34 -218 349.68 -218 349 C-253.97 349 -289.94 349 -327 349 C-326.94199219 339.14898438 -326.88398437 329.29796875 -326.82421875 319.1484375 C-326.79863958 312.8684829 -326.77435925 306.58856662 -326.75585938 300.30859375 C-326.72632561 290.36363662 -326.69183102 280.41889307 -326.62280273 270.47412109 C-326.57252798 263.22759906 -326.54060634 255.98125224 -326.52955753 248.73456061 C-326.52311215 244.90731611 -326.50827193 241.08057231 -326.47134972 237.25349045 C-326.31804535 220.72731903 -326.95378034 205.29566548 -331.43308449 189.26448441 C-334.79208051 175.84732797 -334.25757068 161.58981245 -334.125 147.875 C-334.11493197 146.02995287 -334.105813 144.18490032 -334.09765625 142.33984375 C-334.07598716 137.89309077 -334.04167694 133.44660859 -334 129 C-341.94771396 128.8171682 -349.45308286 129.04114433 -357.25 130.625 Z M-289 226 C-289 254.05 -289 282.1 -289 311 C-260.95 311 -232.9 311 -204 311 C-204 282.95 -204 254.9 -204 226 C-232.05 226 -260.1 226 -289 226 Z M57 227 C56.59910156 227.88558594 56.19820312 228.77117187 55.78515625 229.68359375 C32.03180497 281.67783064 -6.79603179 322.91596815 -60.94799805 343.58911133 C-95.69204644 356.17851589 -131.03361836 358.2999872 -167.42651367 353.27539062 C-170.02212147 352.99763277 -172.39733114 352.75141654 -175 353 C-176.69055631 355.25818836 -177.947727 357.28076667 -179.25 359.75 C-180.03526259 361.14221299 -180.82571665 362.53150937 -181.62109375 363.91796875 C-182.01796387 364.61196777 -182.41483398 365.3059668 -182.82373047 366.02099609 C-191.63753924 380.84970798 -204.16287751 393.64949263 -217 405 C-218.00546961 405.99450031 -219.00669843 406.99334614 -220 408 C-185.40043381 408.09172438 -150.80089556 408.1621242 -116.20123387 408.20426132 C-112.10860233 408.20926364 -108.01597103 408.21444098 -103.92333984 408.21972656 C-102.70127955 408.22130043 -102.70127955 408.22130043 -101.45453118 408.22290608 C-88.29433957 408.24027133 -75.13421845 408.27178742 -61.97406854 408.30861118 C-48.45225763 408.34612899 -34.93048343 408.36825866 -21.40862262 408.37635398 C-13.07711004 408.38181938 -4.74579678 408.39902776 3.58565439 408.43166587 C9.31295732 408.45294791 15.04015848 408.45916941 20.767498 408.45400551 C24.06296548 408.45146476 27.35801792 408.45737051 30.65343857 408.4768219 C60.99688677 408.64702752 85.64549884 403.02305057 108 381 C125.16710468 363.86155492 134.0191522 341.84278213 134.3125 317.75 C134.22697006 292.20355807 124.2243981 269.59629179 106.44140625 251.37890625 C94.28537725 239.78745334 74.70046277 227 57 227 Z " fill="#FFFFFF" transform="translate(927,458)"/>
</svg>
